<?xml version="1.0" standalone="no"?>
<!DOCTYPE svg PUBLIC "-//W3C//DTD SVG 20010904//EN"
 "http://www.w3.org/TR/2001/REC-SVG-20010904/DTD/svg10.dtd">
<svg version="1.0" xmlns="http://www.w3.org/2000/svg"
 width="618.000000pt" height="618.000000pt" viewBox="0 0 618.000000 618.000000"
 preserveAspectRatio="xMidYMid meet">
<metadata>
Created by potrace 1.14, written by Peter Selinger 2001-2017
</metadata>
<g transform="translate(0.000000,618.000000) scale(0.100000,-0.100000)"
fill="#000000" stroke="none">
<path d="M3858 5325 c-2 -2 -28 -5 -58 -8 -133 -12 -296 -77 -407 -161 -152
-115 -293 -312 -370 -515 -35 -93 -69 -238 -81 -345 l-7 -60 -59 100 c-32 54
-79 126 -105 159 -113 149 -302 300 -455 364 -204 85 -482 93 -700 20 -97 -33
-205 -88 -218 -112 -16 -29 -11 -77 9 -99 9 -10 84 -59 167 -110 139 -84 317
-197 341 -215 6 -4 57 -39 115 -77 191 -126 535 -380 595 -438 6 -5 -6 -3 -26
5 -187 77 -453 83 -655 16 -159 -52 -312 -191 -378 -342 -50 -113 -63 -241
-30 -278 36 -41 57 -41 202 -5 124 31 373 85 462 100 316 53 572 82 572 63 0
-4 -3 -25 -7 -47 -4 -21 -1 -64 5 -94 11 -54 11 -55 -23 -103 -51 -73 -67
-124 -69 -219 l-1 -84 -348 0 c-197 0 -359 -4 -373 -10 -49 -18 -53 -44 -52
-305 1 -132 6 -247 10 -256 14 -32 55 -43 161 -44 62 0 109 -5 116 -12 6 -6
12 -48 14 -93 2 -45 7 -101 10 -124 4 -22 9 -54 11 -71 2 -16 7 -41 9 -55 3
-14 7 -38 9 -55 2 -16 12 -73 21 -125 9 -52 18 -108 21 -125 2 -16 9 -55 14
-85 15 -90 19 -113 24 -155 3 -22 8 -51 11 -65 2 -13 7 -42 10 -65 10 -72 26
-159 35 -195 18 -70 -5 -67 670 -66 333 1 613 6 622 10 23 11 45 62 52 121 3
28 21 146 41 262 19 117 38 229 41 250 3 21 11 74 19 118 8 44 17 98 20 120 3
23 8 52 10 65 3 14 8 43 10 65 3 22 8 51 10 65 3 14 7 61 9 105 2 44 7 87 10
95 5 13 27 16 118 15 108 -1 114 0 142 26 l31 27 1 243 c0 177 -3 251 -12 269
-12 25 -51 53 -70 49 -5 -1 -174 -1 -375 0 l-366 1 1 53 c3 111 -20 186 -77
260 -28 36 -29 41 -18 76 14 47 14 95 1 139 l-9 34 87 -6 c48 -4 111 -9 140
-11 89 -9 393 -63 539 -96 184 -43 219 -46 245 -23 35 32 40 62 22 118 -47
145 -175 298 -311 369 -172 90 -380 101 -603 33 -25 -8 -25 -8 -4 8 60 44 266
134 424 186 145 47 386 108 535 134 17 3 39 8 50 10 11 2 45 7 75 12 30 4 57
8 60 9 3 1 37 5 75 10 39 4 77 9 85 11 8 1 23 3 33 3 10 1 31 14 47 30 38 38
33 77 -20 147 -84 111 -240 214 -398 260 -212 62 -507 12 -724 -123 -21 -13
-38 -21 -38 -18 0 5 91 96 176 175 107 100 247 215 384 317 192 143 204 155
197 200 -4 19 -14 44 -23 54 -20 22 -150 74 -237 94 -53 12 -212 26 -219 20z"/>
</g>
</svg>
